<mxfile host="Electron" modified="2023-07-14T20:32:02.907Z" agent="Mozilla/5.0 (X11; Linux x86_64) AppleWebKit/537.36 (KHTML, like Gecko) draw.io/21.6.1 Chrome/112.0.5615.204 Electron/24.6.1 Safari/537.36" etag="bD8RVW0mtyS9jjk-wDGB" version="21.6.1" type="device">
  <diagram name="Page-1" id="3Bs3ozVIBCrklsKEHefm">
    <mxGraphModel dx="759" dy="1562" grid="1" gridSize="10" guides="1" tooltips="1" connect="1" arrows="1" fold="1" page="1" pageScale="1" pageWidth="827" pageHeight="1169" math="0" shadow="0">
      <root>
        <mxCell id="0" />
        <mxCell id="1" parent="0" />
        <mxCell id="pr0kqpdQBtf5eY2m7lx0-1" value="content" style="rounded=0;whiteSpace=wrap;html=1;" vertex="1" parent="1">
          <mxGeometry x="179" y="140" width="470" height="280" as="geometry" />
        </mxCell>
        <mxCell id="pr0kqpdQBtf5eY2m7lx0-2" value="nav bar component" style="rounded=0;whiteSpace=wrap;html=1;" vertex="1" parent="1">
          <mxGeometry x="179" y="140" width="471" height="20" as="geometry" />
        </mxCell>
        <mxCell id="pr0kqpdQBtf5eY2m7lx0-3" value="left Side bar&lt;br&gt;component" style="rounded=0;whiteSpace=wrap;html=1;" vertex="1" parent="1">
          <mxGeometry x="179" y="160" width="101" height="260" as="geometry" />
        </mxCell>
        <mxCell id="pr0kqpdQBtf5eY2m7lx0-5" value="Home view" style="rounded=0;whiteSpace=wrap;html=1;" vertex="1" parent="1">
          <mxGeometry x="179" y="-160" width="470" height="280" as="geometry" />
        </mxCell>
        <mxCell id="pr0kqpdQBtf5eY2m7lx0-6" value="Header" style="rounded=0;whiteSpace=wrap;html=1;" vertex="1" parent="1">
          <mxGeometry x="180" y="-160" width="469" height="20" as="geometry" />
        </mxCell>
        <mxCell id="pr0kqpdQBtf5eY2m7lx0-9" value="next page" style="rounded=1;whiteSpace=wrap;html=1;" vertex="1" parent="1">
          <mxGeometry x="320" y="380" width="200" height="30" as="geometry" />
        </mxCell>
        <mxCell id="pr0kqpdQBtf5eY2m7lx0-10" value="left Side bar&lt;br&gt;component" style="rounded=0;whiteSpace=wrap;html=1;" vertex="1" parent="1">
          <mxGeometry x="548" y="160" width="101" height="260" as="geometry" />
        </mxCell>
        <mxCell id="pr0kqpdQBtf5eY2m7lx0-12" value="content" style="rounded=0;whiteSpace=wrap;html=1;" vertex="1" parent="1">
          <mxGeometry x="178" y="430" width="470" height="280" as="geometry" />
        </mxCell>
        <mxCell id="pr0kqpdQBtf5eY2m7lx0-13" value="nav bar component" style="rounded=0;whiteSpace=wrap;html=1;" vertex="1" parent="1">
          <mxGeometry x="178" y="430" width="471" height="20" as="geometry" />
        </mxCell>
        <mxCell id="pr0kqpdQBtf5eY2m7lx0-14" value="left Side bar&lt;br&gt;component" style="rounded=0;whiteSpace=wrap;html=1;" vertex="1" parent="1">
          <mxGeometry x="178" y="450" width="101" height="260" as="geometry" />
        </mxCell>
        <mxCell id="pr0kqpdQBtf5eY2m7lx0-15" value="next page" style="rounded=1;whiteSpace=wrap;html=1;" vertex="1" parent="1">
          <mxGeometry x="313" y="670" width="101" height="30" as="geometry" />
        </mxCell>
        <mxCell id="pr0kqpdQBtf5eY2m7lx0-16" value="left Side bar&lt;br&gt;component" style="rounded=0;whiteSpace=wrap;html=1;" vertex="1" parent="1">
          <mxGeometry x="547" y="450" width="101" height="260" as="geometry" />
        </mxCell>
        <mxCell id="pr0kqpdQBtf5eY2m7lx0-17" value="next page" style="rounded=1;whiteSpace=wrap;html=1;" vertex="1" parent="1">
          <mxGeometry x="420" y="670" width="100" height="30" as="geometry" />
        </mxCell>
      </root>
    </mxGraphModel>
  </diagram>
</mxfile>
